<?xml version="1.0" encoding="utf-8" ?>
<svg baseProfile="full" height="300mm" version="1.1" viewBox="0,0,200,300" width="200mm" xmlns="http://www.w3.org/2000/svg" xmlns:ev="http://www.w3.org/2001/xml-events" xmlns:xlink="http://www.w3.org/1999/xlink"><defs /><rect fill="#222222" height="300" width="200" x="0" y="0" /><text fill="#FFFFFF" style="font-size:12px; font-family:Arial; font-weight:bold;" x="10" y="20">Over 10km Runs</text><text fill="#FFFFFF" style="font-size:4px; font-family:Arial" x="10" y="280">ATHLETE</text><text fill="#FFFFFF" style="font-size:9px; font-family:Arial" x="10" y="290">yihong0618</text><text fill="#FFFFFF" style="font-size:4px; font-family:Arial" x="120" y="280">STATISTICS</text><text fill="#FFFFFF" style="font-size:3px; font-family:Arial" x="120" y="285">Number: 1</text><text fill="#FFFFFF" style="font-size:3px; font-family:Arial" x="120" y="290">Weekly: 1.0</text><text fill="#FFFFFF" style="font-size:3px; font-family:Arial" x="141" y="285">Total: 10.0 km</text><text fill="#FFFFFF" style="font-size:3px; font-family:Arial" x="141" y="290">Avg: 10.0 km</text><text fill="#FFFFFF" style="font-size:3px; font-family:Arial" x="167" y="285">Min: 10.0 km</text><text fill="#FFFFFF" style="font-size:3px; font-family:Arial" x="167" y="290">Max: 10.0 km</text><polyline fill="none" points="161.18358626309782,231.0 160.2463057921268,227.502964076004 161.18358626309782,224.34434421209153 162.84986265469342,221.52414247463457 165.2451349683106,219.04236070718616 168.36940320255235,217.12461753329262 169.7232527709566,214.41721137205604 168.36940320255235,211.70980048924685 166.4948422620073,208.88957579818089 164.30785449780524,206.4077738316264 162.12086673360318,204.03877734427806 160.03802124317735,201.4441579951672 157.9551757532172,198.51110481319483 155.66404571477324,195.80366618779954 153.37291567586362,193.209033073741 151.91492383321747,190.27596433111466 149.4155092453584,188.1325644372264 148.2699442259036,185.42510770924855 146.08295646170154,182.83045724662952 144.20839552069083,180.12299127015285 142.22969230543822,177.5283319442533 139.93856226699427,175.04647983517498 137.8557167770341,172.33900028071366 135.8770135617815,169.51870405615773 133.79416807182133,166.81121485878248 131.50303803337738,164.10372093890328 129.5243348176591,161.50903483340517 127.54563160287216,158.914344390505 125.46278611244634,156.4324625163572 123.58822517190129,153.72495049098507 121.50537968194112,151.01743374194484 119.63081874093041,148.76116617640946 117.86040007462725,146.05364076793194 116.08998140832409,143.34611063590273 114.11127819307148,140.7513898271136 112.44500180147588,137.9310362013057 110.36215631151572,135.4491207707906 108.17516854731366,133.08001597516704 105.6757539594546,130.823722331319 103.80119301890954,128.0033506633481 101.82248980319127,125.29578903969377 99.84378658793867,122.81385340145789 98.07336792163551,120.10628272360191 95.990522432141,117.39870732126292 93.90767694218084,114.91675905277953 91.92897372692823,112.20917459588964 90.26269733486697,109.61440172488801 87.97156729642302,107.47089042840526 86.61771772801876,104.65047631668858 84.22244541440159,103.86075944674667 81.82717310171574,106.11709229461849 79.32775851339102,108.48623825365212 76.93248620023951,110.74256437574513 74.53721388662234,113.11170327279251 72.0377992996946,115.25520677759778 69.53838471136987,117.39870732126292 67.03897012351081,119.65502048446797 64.5395555361174,121.57288409373723 62.24842549720779,124.05482171662152 59.85315318405628,126.19831010582857 56.83302722359076,126.19831010582857 55.16675083199516,123.2651147217257 53.083905342034996,120.55754483118653 51.41762894997373,117.73715450498275 49.75135255837813,114.91675905277953 48.08507616631687,111.98354234441649 46.210515225771815,109.27595276967622 44.3359542847611,106.56835847045295 42.6696778931655,103.74794271809515 41.003401501104236,101.04033877316397 39.44126738421619,98.10709583421703 37.566706443205476,95.17384735087398 35.379718678537756,92.6918635336915 33.921726835891604,89.87142255890649 31.943023620638996,87.05097645730712 30.485031777527183,84.0048889091704 31.63059679744765,81.07161376613658 34.754865031689405,79.26651861460414 37.67084871744737,77.57424000231549 40.48269012896344,75.76914078160189 43.08624699059874,73.85122055851389 45.5856615784578,71.82047891477123 48.60578753892332,70.69228796404786 51.73005577363074,69.78973461315036 55.062608557287604,69.45127697102726 58.49930361518636,69.33845774049405 61.102860477752984,71.14356444287114 62.977421418298036,73.62558272934984 64.6436978103593,76.4460532355588 66.83068557456136,78.9280630396679 68.91353106452152,81.41006887343246 71.10051882918924,83.89207073685247 72.9750797697343,86.4868866216857 74.53721388662234,89.42015152715612 76.93248620023951,91.78932297951542 79.01533168973401,94.49694306706078 81.20231945440173,96.86610676825512 82.97273812070489,99.57371799682733 84.9514413359575,102.28132450080011 83.5975917680189,104.87610963406041 81.09817717969418,106.90680801635608 78.59876259183511,109.05032009165734 76.09934800444171,111.08101301116403 73.2875065933913,113.11170327279251 70.78809200553223,115.48083855316509 68.80938878981397,117.96278591954615 65.99754737876356,119.88065162021667 63.49813279090449,122.02414577512536 61.311145026702434,124.50608267635107 58.291019066702574,125.63423450104892 55.58331992989406,123.8291911878623 53.8129012635909,121.12162228138186 51.73005577363074,118.52686431293841 50.16792165581137,115.59365442884155 48.60578753892332,112.77325508056674 46.835368872620165,110.17848315276206 44.96080793207511,107.47089042840526 43.190389265771955,104.65047631668858 41.31582832429558,101.83005707839038 39.44126738421619,98.89681563270278 37.67084871744737,96.18920322263148 36.00457232585177,93.25595111353323 34.338295934256166,90.32269345922396 32.67201954172924,87.61506608780473 30.79745860118419,84.79461588477716 31.00574315013364,81.86134223476984 33.6093000122346,79.83061107469257 36.42114142328501,77.79987725720275 39.337125109508634,76.22041578381322 42.14896652055904,74.64095270214602 44.64838110841811,72.7230310846353 47.460222519002855,71.03074533538893 50.68863302888349,69.90255381062161 54.02118581207469,69.22563850192819 57.45788087090477,69.11281925509684 60.47800683090463,70.46664967562538 62.76913686981425,72.9486690449994 64.5395555361174,75.43068444379605 66.62240102561191,78.13833307824098 68.60110424086452,80.84597698703874 70.89223427977413,83.55361617100425 72.8709374954924,86.26125062990468 74.74549843603745,89.30733374878764 77.14077074918896,91.67650537355803 79.43190078809857,94.0456733808387 81.20231945440173,96.75328953098506 83.07688039541245,99.57371799682733 84.74315678700805,102.39414133620448 83.80587631650269,104.3120262788143 81.41060400335118,106.22990885085892 78.80704714125022,108.37342186155729 76.09934800444171,110.62974814767949 73.59993341611698,112.88607115310151 71.20466110343114,114.91675905277953 69.12181561347097,117.51152305747382 66.41411647666246,119.42938931577373 63.91470188880339,121.79851495067123 61.62357185035944,124.28045221301727 58.81173043884337,125.40860420174431 55.895746753085405,124.05482171662152 54.43775491043925,122.3625919498736 52.667336244136095,119.65502048446797 51.00105985207483,116.60899693914689 49.33478346047923,113.67578342976049 47.56436479417607,110.85538059577812 45.793946127872914,107.92215621040668 43.815242912154645,105.44019278453197 42.6696778931655,102.50695816311054 40.48269012896344,100.02498607581947 38.71227146266028,97.09174121753313 37.04599507059902,94.15849081450142 35.27557640429586,91.45087013638113 33.713442286942154,88.51760906982236 32.04716589488089,85.69716050743591 30.589174051769078,82.76388856372796 32.88030409067869,80.39470333047211 35.79628777643666,78.9280630396679 38.71227146266028,77.01014672161546 41.31582832429558,75.20504684443586 43.71110063791275,73.17430697276723 46.418799774721265,71.3692026330391 49.438925735186785,70.24101135414094 52.56319396942854,69.45127697102726 55.895746753085405,69.22563850192819 58.915872713550925,69.67691540718079 61.311145026702434,71.82047891477123 63.18570596771315,74.52813384903129 65.26855145720765,77.23578405834269 67.24725467292592,79.94342954235617 69.43424243666232,82.53825203096494 71.51708792708814,85.24588826159015 73.49579114234075,87.7278839891078 75.57863663230091,90.32269345922396 77.86976667074487,92.6918635336915 79.53604306280613,95.28666470258031 81.61888855183497,97.88146153255366 83.5975917680189,100.70188794774003 83.07688039541245,104.08639287890401 80.78575035603717,106.56835847045295 78.39047804288566,108.93750374042429 75.68277890607715,111.08101301116403 73.2875065933913,113.11170327279251 70.78809200553223,115.25520677759778 68.49696196662262,117.62433878518641 66.10168965300545,119.65502048446797 63.706417340319604,122.02414577512536 60.89457592880353,124.05482171662152 58.082734517753124,125.74704963841941 55.58331992989406,124.05482171662152 53.8129012635909,121.3472532039741 51.73005577363074,118.52686431293841 50.27206393098459,115.48083855316509 48.81407208787277,112.66043899999931 46.73122659837827,109.95285060629249 44.96080793207511,107.13244100555312 43.398673814255744,104.08639287890401 41.83653969690204,101.15315569832455 40.06612103059888,98.44554722576868 38.191560089588165,95.73793402838055 36.21285687433556,92.80468106619082 34.546580482739955,89.75860481325071 32.98444636538625,86.7125225806376 31.109885424375534,83.89207073685247 32.359592718072236,81.07161376613658 34.963149580638856,79.15370009769686 37.774990992154926,77.34860271471553 40.69097467744723,75.76914078160189 43.08624699059874,73.7384016480064 45.89808840258047,72.04611700668465 48.70992981316522,70.46664967562538 51.93834032211453,69.56409619317856 55.16675083199516,69.0 58.49930361518636,69.22563850192819 60.99871820351109,71.25638354197145 63.3939905166626,73.62558272934984 64.7478400846012,76.4460532355588 66.51825875137001,79.0408815726405 68.80938878981397,81.52288722619414 70.68394973082468,84.23052522866055 72.76679522031918,86.82534054783173 74.53721388662234,89.42015152715612 76.51591710280627,92.01495816756506 78.70290486654267,94.49694306706078 80.78575035603717,97.20455843000673 82.66031129751354,99.91216906823684 84.53487223852426,102.73259179247543 82.55616902234033,105.3273761710152 80.16089670918882,107.47089042840526 77.55733984708786,109.61440172488801 75.26620980864391,111.98354234441649 72.66265294607729,113.90141543501522 70.05909608351067,115.81928615516517 67.87210831977427,118.52686431293841 65.16440918296576,120.67036033747718 62.66499459510669,122.81385340145789 60.26972228148952,124.95734350464772 57.14545404724777,125.63423450104892 55.16675083199516,123.2651147217257 53.500474439933896,120.44472931651399 51.41762894997373,117.51152305747382 49.75135255837813,114.691127195023 48.18921844102442,111.87072620657273 45.89808840258047,109.61440172488801 44.44009655946866,106.56835847045295 42.77382016740739,103.52230923657771 41.003401501104236,100.8147048978135 39.02469828585163,98.21991297311615 38.29570236429572,94.83539524592925 36.52528369799256,91.90214057744015 34.4424382080324,89.42015152715612 32.56787726748735,86.59970460517798 31.00574315013364,83.77925255650189 31.943023620638996,81.07161376613658 34.546580482739955,79.0408815726405 37.04599507059902,77.01014672161546 38.92055601114407,75.88195954449475 37.25427961954847,77.34860271471553 34.4424382080324,78.81524449819699 31.63059679744765,80.6203401752282 30.589174051769078,83.66643436788581 31.943023620638996,86.59970460517798 33.50515773752704,89.64578705921303 35.48386095324531,92.35341088764835 37.150137344840914,95.06102999078576 39.337125109508634,97.4301928303903 41.003401501104236,100.25062006572261 42.87796244211495,103.29667572211474 44.3359542847611,106.34272539883386 46.002230676822364,109.16313643485773 47.77264934312552,111.87072620657273 49.33478346047923,114.691127195023 51.10520212678239,117.39870732126292 53.083905342034996,120.10628272360191 54.43775491043925,122.92666874371935 56.83302722359076,125.29578903969377 59.749010909348726,125.52141935541295 62.144283222500235,123.49074533290695 64.5395555361174,121.46006865298841 67.14311239821836,119.54220490402076 69.53838471136987,117.06026006408501 71.82951474981382,114.691127195023 74.12064478872344,112.54762291139923 76.3076325529255,109.95285060629249 78.91118941549212,108.03497263567988 81.51474627759308,105.7786425765371 82.97273812070489,104.3120262788143" stroke="#4DD2FF" stroke-linecap="round" stroke-linejoin="round" stroke-width="0.5"><title>2015-11-27 10.0km</title><desc>1448622633000</desc></polyline></svg>