<?xml version="1.0" encoding="utf-8" ?>
<svg baseProfile="full" height="200mm" version="1.1" viewBox="0,0,200,200" width="200mm" xmlns="http://www.w3.org/2000/svg" xmlns:ev="http://www.w3.org/2001/xml-events" xmlns:xlink="http://www.w3.org/1999/xlink"><defs /><rect fill="#1a1a1a" height="200" width="200" x="0" y="0" /><text alignment-baseline="middle" fill="#e1ed5e" style="dominant-baseline: central; font-size:9.0px; font-family:Arial;" text-anchor="middle" x="100.0" y="100.0">2016</text><line stroke="#e1ed5e" stroke-width="0.3" x1="100.0" x2="100.0" y1="15.0" y2="10.0" /><path d="M 100.0 14.0 a86.0,86.0 0 0,1 42.35913384403234,11.155469271406648" fill="none" id="id37" stroke="none" /><text fill="#e1ed5e" style="font-size:6.75px; font-family:Arial;" text-anchor="middle"><textPath startOffset="22.145653131862478" xlink:href="#id37">January</textPath></text><line stroke="#e1ed5e" stroke-width="0.3" x1="143.13028292997686" x2="145.6673583964461" y1="26.7553504044142" y2="22.446841604673864" /><path d="M 143.63769802327073 25.89364864446614 a86.0,86.0 0 0,1 29.32050498858742,28.57503671076993" fill="none" id="id38" stroke="none" /><text fill="#e1ed5e" style="font-size:6.75px; font-family:Arial;" text-anchor="middle"><textPath startOffset="20.669276256404974" xlink:href="#id38">February</textPath></text><path d="M 115.8921839302757 86.27271002978787 l 32.30358444988514 -27.903066863958422 a63.68609502783542,63.68609502783542 0 0,0 0.7075386761426988,0.8334787814154093 l -32.777817689534956 27.34442130009346" fill="#ffc612" stroke="none" /><path d="M 116.1254893667686 86.54754324733833 l 30.99344526928357 -25.855834363715463 a61.36233170053442,61.36233170053442 0 0,0 0.6678360042424542,0.814651336560433 l -31.432728092764652 25.319980745456537" fill="#ff7f0b" stroke="none" /><path d="M 116.35404254752997 86.82634096563983 l 31.344096575060167 -25.248585468689747 a61.248521193659144,61.248521193659144 0 0,0 0.6525404887896887,0.8244635907698374 l -31.772903494491413 24.70680193400523" fill="#ff7c0b" stroke="none" /><path d="M 116.7966241395341 87.39550010848427 l 33.85312251639331 -25.404014255520742 a63.32490808501109,63.32490808501109 0 0,0 0.6450033309249398,0.875070894876125 l -34.28422786690208 24.819137051375744" fill="#ffbb11" stroke="none" /><path d="M 117.01052211995028 87.68569379921539 l 34.563718761084615 -25.02146690504075 a63.66994798069717,63.66994798069717 0 0,0 0.6333186100262124,0.8908419376642884 l -34.98815246964079 24.42444774066696" fill="#ffc612" stroke="none" /><path d="M 117.21940702142032 87.97951657250589 l 34.69779157306494 -24.221753284293367 a63.31583713236727,63.31583713236727 0 0,0 0.6144960680812281,0.896568127768002 l -35.10847737796149 23.62255042145532" fill="#ffbb11" stroke="none" /><path d="M 117.42321728460499 88.27688183743584 l 52.269651853814985 -35.16935448769248 a84.0,84.0 0 0,0 0.7947022443171026,1.2032804866437652 l -52.86567853705281 34.26689412270966" fill="#4dd2ff" stroke="none" /><path d="M 117.62189284568427 88.57770195909679 l 35.49829349748281 -23.009564966853628 a63.303296812391444,63.303296812391444 0 0,0 0.5832413330929972,0.9169522494326997 l -35.8880525222017 22.396799042742256" fill="#ffbb11" stroke="none" /><path d="M 117.81537515405839 88.88188828441811 l 35.6805441008852 -22.267298440584277 a63.058694786895856,63.058694786895856 0 0,0 0.565222213262996,0.9232480072666909 l -36.0575342786036 21.651513317193032" fill="#ffb310" stroke="none" /><line stroke="#e1ed5e" stroke-width="0.3" x1="172.87174338648825" x2="177.1583165268699" y1="56.24261187166439" y2="53.66864786411523" /><path d="M 173.72905801456457 55.72781907015455 a86.0,86.0 0 0,1 12.242430191666344,42.057860355516425" fill="none" id="id39" stroke="none" /><text fill="#e1ed5e" style="font-size:6.75px; font-family:Arial;" text-anchor="middle"><textPath startOffset="22.145653131862474" xlink:href="#id39">March</textPath></text><path d="M 119.16976305983485 91.42560881287824 l 40.765822542097474 -18.234033902750884 a65.65794755584331,65.65794755584331 0 0,0 0.45137061920811666,1.0328243094458622 l -41.07282704332256 17.531547523529174" fill="#feff18" stroke="none" /><path d="M 119.31412917781788 91.75594674310238 l 41.50680685874131 -17.716787700696454 a66.12980813210271,66.12980813210271 0 0,0 0.43669025208017853,1.047897633488076 l -41.80482295535797 17.0016575577671" fill="#f1ff19" stroke="none" /><path d="M 120.35273937422433 94.82641323984039 l 40.67816077435144 -10.340229398129818 a62.97181325592132,62.97181325592132 0 0,0 0.25732224072594334,1.0499625535917907 l -40.849670541593674 9.640411019929934" fill="#ffb110" stroke="none" /><path d="M 120.86939407059847 97.66154086499901 l 46.13843246456366 -5.169907593215083 a67.42717840672083,67.42717840672083 0 0,0 0.11901734215471468,1.1513848215177176 l -46.22038219920004 4.377118249414433" fill="#cdff1d" stroke="none" /><path d="M 120.9064616781168 98.02013634271609 l 45.45643246918899 -4.304771415706847 a66.65981066285126,66.65981066285126 0 0,0 0.09810539329729724,1.1401333798104567 l -45.523631485184026 3.5238169885207284" fill="#e2ff1b" stroke="none" /><line stroke="#e1ed5e" stroke-width="0.3" x1="184.99686870605535" x2="189.99668451229388" y1="99.2704041080226" y2="99.22748670261217" /><path d="M 185.99683186730306 99.26182062694052 a86.0,86.0 0 0,1 -10.086455211305974,41.156179273409016" fill="none" id="id40" stroke="none" /><text fill="#e1ed5e" style="font-size:6.75px; font-family:Arial;" text-anchor="middle"><textPath startOffset="21.40746469413373" xlink:href="#id40">April</textPath></text><path d="M 120.99922638620191 100.18025310272382 l 42.42377760780595 0.36415710762074793 a63.425340504415615,63.425340504415615 0 0,0 -0.018691050385206014,1.0886599805013526 l -42.41127512582207 -1.0923640040911717" fill="#ffbe11" stroke="none" /><path d="M 120.82617615685814 102.69636545807757 l 52.784611303034055 6.834024717911713 a74.22517340749036,74.22517340749036 0 0,0 -0.17444853891904963,1.262222726175759 l -52.659518247559795 -7.739135752287557" fill="#31ff3c" stroke="none" /><path d="M 120.26092885502905 105.52220625578681 l 49.9474200661758 13.613391445347528 a72.76938475500054,72.76938475500054 0 0,0 -0.33883334153090683,1.202399994878019 l -49.70636823257032 -14.468799364128555" fill="#47ff2c" stroke="none" /><line stroke="#e1ed5e" stroke-width="0.3" x1="174.33088141563837" x2="178.70328620479359" y1="141.23008692659167" y2="143.65538615756765" /><path d="M 175.20536237346943 141.71514677278685 a86.0,86.0 0 0,1 -30.301960400862466,31.631185727798858" fill="none" id="id41" stroke="none" /><text fill="#e1ed5e" style="font-size:6.75px; font-family:Arial;" text-anchor="middle"><textPath startOffset="22.145653131862474" xlink:href="#id41">May</textPath></text><line stroke="#e1ed5e" stroke-width="0.3" x1="143.1302829299769" x2="145.66735839644613" y1="173.24464959558577" y2="177.55315839532614" /><path d="M 143.63769802327073 174.10635135553383 a86.0,86.0 0 0,1 -40.68552437913181,11.842963189579606" fill="none" id="id42" stroke="none" /><text fill="#e1ed5e" style="font-size:6.75px; font-family:Arial;" text-anchor="middle"><textPath startOffset="21.407464694133747" xlink:href="#id42">June</textPath></text><line stroke="#e1ed5e" stroke-width="0.3" x1="101.45913802915013" x2="101.54496967792366" y1="184.9874750549273" y2="189.98673829345242" /><path d="M 101.47630435890484 185.9873277026323 a86.0,86.0 0 0,1 -42.54439059252881,-10.42667462771756" fill="none" id="id43" stroke="none" /><text fill="#e1ed5e" style="font-size:6.75px; font-family:Arial;" text-anchor="middle"><textPath startOffset="22.145653131862474" xlink:href="#id43">July</textPath></text><line stroke="#e1ed5e" stroke-width="0.3" x1="58.13341422392154" x2="55.67067388415222" y1="173.97424548756322" y2="178.32567169271397" /><path d="M 57.64086615596768 174.84453072859336 a86.0,86.0 0 0,1 -31.369924170532247,-30.572349798747897" fill="none" id="id44" stroke="none" /><text fill="#e1ed5e" style="font-size:6.75px; font-family:Arial;" text-anchor="middle"><textPath startOffset="22.145653131862474" xlink:href="#id44">August</textPath></text><path d="M 84.3458050057657 113.99807769240083 l -27.19823627518781 24.32083058992046 a57.48625572821296,57.48625572821296 0 0,0 -0.6514806113219842,-0.7412653450380898 l 27.61172795046839 -23.85035296707107" fill="#ff0000" stroke="none" /><line stroke="#e1ed5e" stroke-width="0.3" x1="26.387840678322732" x2="22.057713659400548" y1="142.50000000000003" y2="145.00000000000006" /><path d="M 25.521815274538298 143.00000000000003 a86.0,86.0 0 0,1 -11.493303480769221,-40.785679425670985" fill="none" id="id45" stroke="none" /><text fill="#e1ed5e" style="font-size:6.75px; font-family:Arial;" text-anchor="middle"><textPath startOffset="21.40746469413373" xlink:href="#id45">September</textPath></text><line stroke="#e1ed5e" stroke-width="0.3" x1="15.003131293944662" x2="10.003315487706104" y1="100.72959589197737" y2="100.7725132973878" /><path d="M 14.003168132696942 100.73817937305945 a86.0,86.0 0 0,1 10.791469493833604,-42.45332614584628" fill="none" id="id46" stroke="none" /><text fill="#e1ed5e" style="font-size:6.75px; font-family:Arial;" text-anchor="middle"><textPath startOffset="22.145653131862435" xlink:href="#id46">October</textPath></text><line stroke="#e1ed5e" stroke-width="0.3" x1="26.387840678322718" x2="22.05771365940052" y1="57.49999999999999" y2="54.99999999999999" /><path d="M 25.521815274538284 56.99999999999999 a86.0,86.0 0 0,1 29.574782752854787,-30.34633250058573" fill="none" id="id47" stroke="none" /><text fill="#e1ed5e" style="font-size:6.75px; font-family:Arial;" text-anchor="middle"><textPath startOffset="21.40746469413373" xlink:href="#id47">November</textPath></text><line stroke="#e1ed5e" stroke-width="0.3" x1="56.869717070023135" x2="54.33264160355391" y1="26.7553504044142" y2="22.446841604673864" /><path d="M 56.362301976729285 25.89364864446614 a86.0,86.0 0 0,1 42.16139366436587,-11.88097634709845" fill="none" id="id48" stroke="none" /><text fill="#e1ed5e" style="font-size:6.75px; font-family:Arial;" text-anchor="middle"><textPath startOffset="22.145653131862474" xlink:href="#id48">December</textPath></text></svg>