<?xml version="1.0" encoding="utf-8" ?>
<svg baseProfile="full" height="200mm" version="1.1" viewBox="0,0,200,200" width="200mm" xmlns="http://www.w3.org/2000/svg" xmlns:ev="http://www.w3.org/2001/xml-events" xmlns:xlink="http://www.w3.org/1999/xlink"><defs /><rect fill="#1a1a1a" height="200" width="200" x="0" y="0" /><text alignment-baseline="middle" fill="#e1ed5e" style="dominant-baseline: central; font-size:9.0px; font-family:Arial;" text-anchor="middle" x="100.0" y="100.0">2015</text><line stroke="#e1ed5e" stroke-width="0.3" x1="100.0" x2="100.0" y1="15.0" y2="10.0" /><path d="M 100.0 14.0 a86.0,86.0 0 0,1 42.46469731375804,11.215312516191453" fill="none" id="id25" stroke="none" /><text fill="#e1ed5e" style="font-size:6.75px; font-family:Arial;" text-anchor="middle"><textPath startOffset="22.20632615414155" xlink:href="#id25">January</textPath></text><line stroke="#e1ed5e" stroke-width="0.3" x1="143.23703022742887" x2="145.7803849466894" y1="26.81831364943548" y2="22.513508569990506" /><path d="M 143.74570117128098 25.957352633546492 a86.0,86.0 0 0,1 28.547481713284135,27.462654790039103" fill="none" id="id26" stroke="none" /><text fill="#e1ed5e" style="font-size:6.75px; font-family:Arial;" text-anchor="middle"><textPath startOffset="19.985693538727396" xlink:href="#id26">February</textPath></text><line stroke="#e1ed5e" stroke-width="0.3" x1="172.23445277983987" x2="176.4835382374775" y1="55.19839476539836" y2="52.563006222186495" /><path d="M 173.08426987136738 54.67131705675599 a86.0,86.0 0 0,1 12.851231095245387,41.99856678651699" fill="none" id="id27" stroke="none" /><text fill="#e1ed5e" style="font-size:6.75px; font-family:Arial;" text-anchor="middle"><textPath startOffset="22.20632615414155" xlink:href="#id27">March</textPath></text><line stroke="#e1ed5e" stroke-width="0.3" x1="184.98032266829074" x2="189.97916517819016" y1="98.17113171792111" y2="98.06355123074" /><path d="M 185.9800911702706 98.14961562048488 a86.0,86.0 0 0,1 -9.607161424134198,41.387399972396054" fill="none" id="id28" stroke="none" /><text fill="#e1ed5e" style="font-size:6.75px; font-family:Arial;" text-anchor="middle"><textPath startOffset="21.466115282336823" xlink:href="#id28">April</textPath></text><line stroke="#e1ed5e" stroke-width="0.3" x1="174.80103733775053" x2="179.2010983576182" y1="140.37084112569926" y2="142.7455964860345" /><path d="M 175.68104954172406 140.8457921977663 a86.0,86.0 0 0,1 -30.038265399797805,32.042727171017184" fill="none" id="id29" stroke="none" /><text fill="#e1ed5e" style="font-size:6.75px; font-family:Arial;" text-anchor="middle"><textPath startOffset="22.206326154141568" xlink:href="#id29">May</textPath></text><line stroke="#e1ed5e" stroke-width="0.3" x1="143.8653032363475" x2="146.44561519142675" y1="172.8068346515853" y2="177.08958963109032" /><path d="M 144.38136562736335 173.6633856474863 a86.0,86.0 0 0,1 -40.68145358897372,12.25698825130547" fill="none" id="id30" stroke="none" /><text fill="#e1ed5e" style="font-size:6.75px; font-family:Arial;" text-anchor="middle"><textPath startOffset="21.466115282336833" xlink:href="#id30">June</textPath></text><path d="M 107.93186726928326 119.44442032107085 l 8.238981001554604 20.197288251650374 a42.81309837378065,42.81309837378065 0 0,0 -0.6847627339571033,0.27248122373377065 l -7.890097191555634 -20.336116319790214" fill="#ff2e04" stroke="none" /><line stroke="#e1ed5e" stroke-width="0.3" x1="102.19456741930631" x2="102.32365962044197" y1="184.97166512339345" y2="189.96999836594603" /><path d="M 102.22038585953345 185.97133177190398 a86.0,86.0 0 0,1 -42.740103519485714,-10.115201625700543" fill="none" id="id31" stroke="none" /><text fill="#e1ed5e" style="font-size:6.75px; font-family:Arial;" text-anchor="middle"><textPath startOffset="22.20632615414155" xlink:href="#id31">July</textPath></text><line stroke="#e1ed5e" stroke-width="0.3" x1="58.666819895761336" x2="56.23545636021788" y1="174.27360380694188" y2="178.64263932499728" /><path d="M 58.180547188652646 175.14741091055294 a86.0,86.0 0 0,1 -31.652253787137756,-30.449443065178592" fill="none" id="id32" stroke="none" /><text fill="#e1ed5e" style="font-size:6.75px; font-family:Arial;" text-anchor="middle"><textPath startOffset="22.20632615414155" xlink:href="#id32">August</textPath></text><line stroke="#e1ed5e" stroke-width="0.3" x1="26.63291911575756" x2="22.317208475507996" y1="142.92168965132927" y2="145.44649492493687" /><path d="M 25.769776987707644 143.4266507060508 a86.0,86.0 0 0,1 -11.730757126820373,-40.83630448921669" fill="none" id="id33" stroke="none" /><text fill="#e1ed5e" style="font-size:6.75px; font-family:Arial;" text-anchor="middle"><textPath startOffset="21.46611528233685" xlink:href="#id33">September</textPath></text><path d="M 79.97269907076064 106.31721596034903 l -19.15168068449106 6.041018872939569 a41.081852057614604,41.081852057614604 0 0,0 -0.20692190874093172,-0.6762327701868821 l 19.25282936573812 -5.710459130200639" fill="#ff0b01" stroke="none" /><path d="M 79.86692584326677 105.97154293290107 l -20.313449768078446 6.025042994481887 a42.18814254637724,42.18814254637724 0 0,0 -0.20050891724890837,-0.6979978452421558 l 20.41415132221346 -5.674487673735135" fill="#ff2203" stroke="none" /><path d="M 79.76711848015287 105.62410040840567 l -21.737117330507928 6.042230333635413 a43.56126807706012,43.56126807706012 0 0,0 -0.19459839787145916,-0.7241730308606021 l 21.83790380472116 -5.667166369599272" fill="#ff3e05" stroke="none" /><path d="M 79.67330655649465 105.27499134158121 l -23.470914774438924 6.0909499401986835 a45.24837131691491,45.24837131691491 0 0,0 -0.18915690705719676,-0.7555878158786492 l 23.57228299579118 -5.686034284922642" fill="#ff5f08" stroke="none" /><path d="M 79.58551787078972 104.9243191809786 l -24.888884875750374 6.003620979023432 a46.60273530734804,46.60273530734804 0 0,0 -0.18139434333860782,-0.7814420835716891 l 24.988539785019537 -5.574310238103168" fill="#ff790b" stroke="none" /><path d="M 79.50377843672027 104.57218783832718 l -26.3962245480116 5.888329050481818 a48.04501967822908,48.04501967822908 0 0,0 -0.17311298087887445,-0.8087262143872596 l 26.493671567614914 -5.433089016678395" fill="#ff950d" stroke="none" /><path d="M 79.4281124754447 104.21870165774334 l -28.042960781673752 5.75080361471284 a49.626550466612045,49.626550466612045 0 0,0 -0.16440583057850816,-0.8383017881428573 l 28.137796545227925 -5.267238099502028" fill="#ffb210" stroke="none" /><path d="M 79.35854240842038 103.8639653848113 l -31.44820902004732 5.886928795054829 a52.99446485263711,52.99446485263711 0 0,0 -0.16012796815384028,-0.8980826836181568 l 31.54488343054035 -5.344727360703459" fill="#ffef16" stroke="none" /><path d="M 79.23777060512086 103.15116336523772 l -31.606416462841572 4.797027321580297 a52.96837550997189,52.96837550997189 0 0,0 -0.12905605709889753,-0.9026177627659953 l 31.68430657095707 -4.252264086833901" fill="#ffef16" stroke="none" /><line stroke="#e1ed5e" stroke-width="0.3" x1="15.007084014347285" x2="10.007500721073583" y1="101.09737516637583" y2="101.16192664675087" /><path d="M 14.007167355692545 101.11028546245083 a86.0,86.0 0 0,1 10.666146001902534,-42.60595125391555" fill="none" id="id34" stroke="none" /><text fill="#e1ed5e" style="font-size:6.75px; font-family:Arial;" text-anchor="middle"><textPath startOffset="22.20632615414155" xlink:href="#id34">October</textPath></text><path d="M 79.00019446554 99.90962569577889 l -31.770703195914656 -0.1367277040368242 a52.77099740373212,52.77099740373212 0 0,0 0.011727708060679472,-0.9083239136873394 l 31.763642480736262 0.6835878757846356" fill="#ffeb16" stroke="none" /><path d="M 79.05617556472873 98.46500227214037 l -31.931471588871368 -2.340295416800133 a53.01711824116585,53.01711824116585 0 0,0 0.07454084678443709,-0.9095871358115087 l 31.886456258267437 2.8895964698194203" fill="#ffef16" stroke="none" /><path d="M 79.91906864156998 93.8553929516997 l -30.787786228012532 -9.420820423191735 a53.19688864265963,53.19688864265963 0 0,0 0.2754699962134644,-0.8733151669614033 l 30.621060748030864 9.949385756579554" fill="#fff316" stroke="none" /><path d="M 80.02781315780177 93.51064311812611 l -34.41025641549966 -11.180570061820557 a57.181084747250374,57.181084747250374 0 0,0 0.312216091532636,-0.9334863740683609 l 34.21270303019525 11.771229538811241" fill="#c8ff1d" stroke="none" /><path d="M 80.14247586403 93.16781622104843 l -37.45397627626245 -12.886422668795484 a60.60884027716132,60.60884027716132 0 0,0 0.34791471290962506,-0.9836017440946188 l 37.22660848254302 13.529222039316714" fill="#91ff24" stroke="none" /><path d="M 80.38941819471856 92.48833698450439 l -37.19542487480074 -14.247384404599346 a60.83073679947895,60.83073679947895 0 0,0 0.38296265573049004,-0.9745981871004094 l 36.94466866918856 14.88553159659552" fill="#8dff24" stroke="none" /><path d="M 80.52162464483688 92.15188598940014 l -37.40096824284817 -15.069381173974135 a61.32268188586994,61.32268188586994 0 0,0 0.4029142953441205,-0.9756889250510115 l 37.13603226061785 15.710944669478456" fill="#86ff25" stroke="none" /><path d="M 80.95270993114464 91.15688171328213 l -36.95039919302638 -17.155025708337586 a61.738518720956556,61.738518720956556 0 0,0 0.4558119739062829,-0.9600562635927311 l 36.649629025278344 17.78852438757085" fill="#80ff26" stroke="none" /><line stroke="#e1ed5e" stroke-width="0.3" x1="26.266209847984243" x2="21.928928074336255" y1="57.711370442889674" y2="55.22380399835377" /><path d="M 25.398753493254645 57.213857153982495 a86.0,86.0 0 0,1 29.58750427330803,-30.492523968695096" fill="none" id="id35" stroke="none" /><text fill="#e1ed5e" style="font-size:6.75px; font-family:Arial;" text-anchor="middle"><textPath startOffset="21.46611528233685" xlink:href="#id35">November</textPath></text><path d="M 81.96595687620814 89.24020034530311 l -34.981323406178234 -20.871195046111 a61.73450343259927,61.73450343259927 0 0,0 0.552330375982415,-0.907885912621197 l 34.616877231909605 21.470248731939275" fill="#80ff26" stroke="none" /><path d="M 83.39014120810768 87.1503855733568 l -24.96884267182769 -19.316238929683823 a52.568341590256466,52.568341590256466 0 0,0 0.5598426231715761,-0.7109432785193893 l 24.632645968062146 19.74317460215626" fill="#ffe815" stroke="none" /><path d="M 83.6137871275137 86.86637796730984 l -15.256500209858485 -12.22815234106846 a40.5521995777915,40.5521995777915 0 0,0 0.44124946443544927,-0.5409196694738972 l 15.043752253346643 12.48895618015044" fill="#ff0000" stroke="none" /><path d="M 83.84228863543731 86.58626213691792 l -31.68810916872675 -26.306695309477238 a62.18468745534942,62.18468745534942 0 0,0 0.6908108374739709,-0.8177021386145394 l 31.230587717765655 26.848256397720892" fill="#79ff26" stroke="none" /><path d="M 84.5562425177563 85.77008943001954 l -17.751309833849156 -16.356094151705758 a45.137746719956546,45.137746719956546 0 0,0 0.5314060000854346,-0.5668668696792867 l 17.467136511793267 16.659230438263094" fill="#ff5d08" stroke="none" /><path d="M 85.05521093208273 85.24692304244772 l -22.43338803096628 -22.145611994616207 a52.522770010961764,52.522770010961764 0 0,0 0.6406882548978218,-0.6379369359212337 l 22.04886397590115 22.528484781187547" fill="#ffe715" stroke="none" /><path d="M 86.93701828274178 83.55741782278169 l -19.610009603305258 -24.68342996854958 a52.52497726651069,52.52497726651069 0 0,0 0.7127575505688956,-0.5563185737919508 l 19.182219497576938 25.01732693156475" fill="#ffe715" stroke="none" /><path d="M 87.22198572758235 83.33499621200491 l -20.077054017088347 -26.184364339675653 a53.995591127875876,53.995591127875876 0 0,0 0.7424492675363579,-0.5591973957208514 l 19.6233585957936 26.526078324902358" fill="#feff18" stroke="none" /><path d="M 87.51073957382395 83.11751280151077 l -18.23264507970507 -24.646166918545426 a51.65718334060219,51.65718334060219 0 0,0 0.7193992958062148,-0.5226741830203253 l 17.805700467545073 24.956360336382417" fill="#ffd714" stroke="none" /><path d="M 87.80319425747018 82.90503203632743 l -18.441742834770245 -25.84783340898688 a52.7522970936362,52.7522970936362 0 0,0 0.7437291659455744,-0.5210298093447508 l 17.99408252924101 26.161448061095573" fill="#ffeb16" stroke="none" /><path d="M 88.09926311788651 82.69761687909137 l -35.70221064634046 -51.907149362725875 a84.0,84.0 0 0,0 1.198381222373842,-0.8091523508053382 l 34.80342472956008 52.51401362582988" fill="#4dd2ff" stroke="none" /><path d="M 89.00827224532344 82.1063720568725 l -16.943975947947646 -27.583398011370953 a53.37193486306204,53.37193486306204 0 0,0 0.7869512206173688,-0.47412930516466417 l 16.46666266111263 27.870973925994235" fill="#fff617" stroke="none" /><line stroke="#e1ed5e" stroke-width="0.3" x1="56.762969772571076" x2="54.21961505331055" y1="26.818313649435495" y2="22.513508569990535" /><path d="M 56.25429882871897 25.957352633546506 a86.0,86.0 0 0,1 42.265352541879196,-11.944610805530505" fill="none" id="id36" stroke="none" /><text fill="#e1ed5e" style="font-size:6.75px; font-family:Arial;" text-anchor="middle"><textPath startOffset="22.20632615414155" xlink:href="#id36">December</textPath></text><path d="M 89.3179101791058 81.91981866633112 l -17.03258648198759 -28.828839425537982 a54.484488720747095,54.484488720747095 0 0,0 0.8115679096098143,-0.4701125163299162 l 16.533821839912452 29.117756099257946" fill="#f5ff19" stroke="none" /><path d="M 89.63071344664047 81.73862282372117 l -16.280498586912774 -28.671627867894696 a53.97145551584741,53.97145551584741 0 0,0 0.8118229845321843,-0.45177861195006763 l 15.784551513308545 28.94762187740495" fill="#feff18" stroke="none" /></svg>